<?xml version="1.0" encoding="UTF-8" standalone="no"?>
<!DOCTYPE svg PUBLIC "-//W3C//DTD SVG 1.1//EN" "http://www.w3.org/Graphics/SVG/1.1/DTD/svg11.dtd">
<svg height="100%" stroke-miterlimit="10" style="fill-rule:nonzero;clip-rule:evenodd;stroke-linecap:round;stroke-linejoin:round;" version="1.1" viewBox="0 0 512 512" width="100%" xml:space="preserve" xmlns="http://www.w3.org/2000/svg" xmlns:xlink="http://www.w3.org/1999/xlink">
<defs/>
<g id="Untitled">
<path d="M57.7 193L67.1 209.4C75.4 223.9 89 234.6 105.1 239.2L163 255.7C180.2 260.6 192 276.3 192 294.2L192 334.1C192 345.1 198.2 355.1 208 360C217.8 364.9 224 374.9 224 385.9L224 424.9C224 440.5 238.9 451.8 253.9 447.5C270 442.9 282.5 430 286.6 413.7L289.4 402.5C293.6 385.6 304.6 371.1 319.7 362.5L327.8 357.9C342.8 349.4 352 333.4 352 316.2L352 307.9C352 295.2 346.9 283 337.9 274L334 270.1C325 261.1 312.8 256 300.1 256L257 256C245.9 256 234.9 253.1 225.2 247.6L190.7 227.9C186.4 225.4 183.1 221.4 181.5 216.7C178.3 207.1 182.6 196.7 191.7 192.2L197.6 189.2C204.2 185.9 211.9 185.3 218.9 187.7L242.1 195.4C250.3 198.1 259.3 195 264 187.9C268.7 180.9 268.2 171.6 262.8 165.1L249.2 148.8C239.2 136.8 239.3 119.3 249.5 107.5L265.2 89.2C274 78.9 275.4 64.2 268.7 52.5L266.3 48.3C262.8 48.1 259.4 48 255.9 48C163.1 48 84.4 108.9 57.7 193ZM464 256C464 219.2 454.4 184.6 437.6 154.5L412 164.8C396.3 171.1 388.2 188.6 393.5 204.6L410.4 255.3C413.9 265.7 422.4 273.6 433 276.2L462.1 283.5C463.3 274.5 463.9 265.3 463.9 256L464 256ZM512 256C512 397.4 397.4 512 256 512C114.6 512 0 397.4 0 256C0 114.6 114.6 0 256 0C397.4 0 512 114.6 512 256Z" fill="#f9fafb" fill-rule="nonzero" opacity="1" stroke="none"/>
</g>
</svg>
