<?xml version="1.0" encoding="UTF-8" standalone="no"?>
<!DOCTYPE svg PUBLIC "-//W3C//DTD SVG 1.1//EN" "http://www.w3.org/Graphics/SVG/1.1/DTD/svg11.dtd">
<svg height="100%" stroke-miterlimit="10" style="fill-rule:nonzero;clip-rule:evenodd;stroke-linecap:round;stroke-linejoin:round;" version="1.1" viewBox="0 0 1179 1193" width="100%" xml:space="preserve" xmlns="http://www.w3.org/2000/svg" xmlns:xlink="http://www.w3.org/1999/xlink">
<defs>
<filter color-interpolation-filters="sRGB" filterUnits="userSpaceOnUse" height="536.445" id="Filter" width="480.899" x="107.303" y="54.9229">
<feDropShadow dx="-3.67321e-05" dy="10" flood-color="#06070a" flood-opacity="1" in="SourceGraphic" result="Shadow" stdDeviation="5"/>
</filter>
<filter color-interpolation-filters="sRGB" filterUnits="userSpaceOnUse" height="536.446" id="Filter_2" width="442.576" x="654.52" y="53.7307">
<feDropShadow dx="-3.67321e-05" dy="10" flood-color="#06070a" flood-opacity="1" in="SourceGraphic" result="Shadow" stdDeviation="5"/>
</filter>
<filter color-interpolation-filters="sRGB" filterUnits="userSpaceOnUse" height="536.446" id="Filter_3" width="446.797" x="141.255" y="624.237">
<feDropShadow dx="-3.67321e-05" dy="10" flood-color="#06070a" flood-opacity="1" in="SourceGraphic" result="Shadow" stdDeviation="5"/>
</filter>
<filter color-interpolation-filters="sRGB" filterUnits="userSpaceOnUse" height="536.447" id="Filter_4" width="418.325" x="655.421" y="627.904">
<feDropShadow dx="-3.67321e-05" dy="10" flood-color="#06070a" flood-opacity="1" in="SourceGraphic" result="Shadow" stdDeviation="5"/>
</filter>
</defs>
<clipPath id="ArtboardFrame">
<rect height="1193" width="1179" x="0" y="0"/>
</clipPath>
<g clip-path="url(#ArtboardFrame)" id="Layer-1">
<g opacity="1">
<path d="M237.197 322.337C216.791 589.689 412.087 439.55 523.057 454.053C839.053 495.353 892.284 482.297 901.899 480.107C1021.31 452.911 1087.41 345.373 923.293 170.096C876.581 168.174 471.329-75.4769 237.197 322.337Z" fill="#292a89" fill-rule="nonzero" opacity="1" stroke="none"/>
<path d="M611.137 636.762C559.355 641.191 334.164 720.494 430.482 929.701C395.555 970.351 659.695 1138.22 690.439 1133.45C758.841 1122.83 847.106 1041.91 850.852 1030.87C862.222 997.398 961.243 838.164 906.774 745.688C772.753 592.48 650.242 633.417 611.137 636.762Z" fill="#e0cbc6" fill-rule="nonzero" opacity="1" stroke="none"/>
<path d="M537.666 122.329C530.176 128.51 490.305 138.352 533.119 177.166C545.878 188.733 563.636 199.258 588.927 191.066C614.219 182.875 628.591 130.932 634.364 117.669C614.66 218.992 742.644 177.321 749.855 151.013C752.784 140.327 711.345 111.398 699.331 103.494C767.027 125.052 779.572 102.218 787.53 104.979C825.156 118.038 859.707 136.824 894.167 157.863C847.19 148.141 748.908 118.647 745.625 118.251C799.351 159.493 929.066 172.241 929.066 172.241C929.066 172.241 874.31 115.623 793.392 98.4458C784.788 96.6195 810.134 57.4029 735.25 44.324C723.034 42.1904 673.655 41.9 647.179 68.1548C617.525 37.1006 582.027 14.1237 536.239 23.0812C501.53 29.8712 438.243 73.5802 463.289 121.627C472.305 138.925 515.669 125.942 537.666 122.329Z" fill="#7c9ad6" fill-rule="nonzero" opacity="1" stroke="none"/>
<path d="M309.103 843.385C181.417 1110.7 350.23 1169.3 359.997 1173.19C364.082 1174.82 371.606 1189.89 379.803 1187.17C376.359 1182.37 367.425 1175.1 371.935 1171.27C377.416 1166.63 384.559 1164.4 390.871 1160.96C385.333 1158.25 383.268 1167.1 366.946 1159.81C345.797 1150.37 365.989 1103.07 369.317 1094.55C380.86 1124.85 424.469 1179.83 430.131 1181.18C415.802 1158.29 420.731 1117.26 421.162 1116.69C430.165 1127.41 436.768 1139.94 444.462 1151.64C445.239 1146.2 422.149 876.975 309.103 843.385Z" fill="#7c9ad6" fill-rule="nonzero" opacity="1" stroke="none"/>
<path d="M689.426 693.999C683.443 707.148 719.197 793.43 729.897 811.45C732.564 797.295 724.876 785.47 729.314 771.256C752.956 806.411 733.194 853.584 733.582 853.972C793.639 826.757 865.17 711.57 865.605 695.452C865.957 682.411 879.485 507.944 792.552 481.487C784.301 478.976 694.249 683.4 689.426 693.999Z" fill="#bcbfde" fill-rule="nonzero" opacity="1" stroke="none"/>
<path d="M293.213 554.51C253.21 619.217 199.62 734.236 87.5833 849.848C121.664 843.643 185.849 787.689 190.442 787.956C168.175 861.818 149.914 931.29 105.862 994.469C103.771 997.467 168.232 936.705 197.097 866.158C196.762 877.872 162.437 1008.88 148.748 1022.27C171.915 1012.64 236.66 902.118 232.631 863.245C233.47 898.849 240.019 998.526 244.281 1009.46C291.412 959.301 310.418 881.588 293.213 554.51Z" fill="#7b80af" fill-rule="nonzero" opacity="1" stroke="none"/>
<path d="M295.337 486.986C306.697 488.151 186.975 621.345 71.6353 720.47C55.6129 734.24 101.933 770.45 103.923 767.982C107.754 763.229 123.039 745.209 143.773 720.946C199.849 655.325 295.783 544.037 312.813 526.015C313.101 527.906 248.448 737.724 232.363 790.107C230.19 797.183 286.303 814.108 289.707 807.724C299.803 788.786 351.647 525.864 358.54 476.274C347.958 478.874 305.181 483.247 295.337 486.986Z" fill="#2f2f3d" fill-rule="nonzero" opacity="1" stroke="none"/>
<path d="M440.385 696.693C450.871 701.795 493.007 632.103 492.812 632.616C487.478 646.626 457.031 699.313 454.948 714.169C567.531 690.382 626.387 588.479 588.541 482.843C328.566 467.433 432.471 692.843 440.385 696.693Z" fill="#9dbdef" fill-rule="nonzero" opacity="1" stroke="none"/>
<path d="M433.355 505.354C404.696 510.813 380.917 600.133 380.385 601.16C380.003 600.608 383.014 540.167 384.463 527.18C242.665 708.939 417.665 907.064 429.614 920.88C434.702 926.762 367.609 809.064 368.152 802.712C395.848 857.914 462.126 891.612 468.117 891.928C450.642 871.54 432.229 848.148 432.812 847.566C443.589 857.469 456.276 867.612 457.368 866.848C443.324 791.718 374.226 724.147 433.355 505.354Z" fill="#92b1d3" fill-rule="nonzero" opacity="1" stroke="none"/>
<path d="M878.106 972.39C838.991 1052.29 851.527 1042.18 757.343 1099.66C729.677 1116.54 699.029 1142.26 673.973 1127.8C673.969 1131.84 702.23 1180.35 702.519 1190.09C809.623 1129.44 801.057 1107.3 809.702 1095.14C807.08 1130.55 786.473 1156.02 763.326 1180.71C806.749 1162.78 831.215 1128.74 858.051 1091.64C863.46 1108.68 844.782 1179.39 833.585 1191.83C895.286 1152.55 914.497 1090.87 914.137 1089.83C904.643 1062.23 880.492 978.839 878.106 972.39Z" fill="#9dbdef" fill-rule="nonzero" opacity="1" stroke="none"/>
<path d="M464.599 990.638C456.55 1014.84 480.385 1137.02 503.936 1144.82C576.275 1168.8 584.846 1163.29 633.781 1164.46C662.44 1165.14 680.573 1128.22 669.228 1126.5C653.596 1124.13 491.015 1024.27 464.599 990.638Z" fill="#d1a9a2" fill-rule="nonzero" opacity="1" stroke="none"/>
<path d="M445.627 458.443C373.343 468.997 372.921 594.663 380.385 609.315C383.025 595.307 402.894 540.814 407.181 534.17C423.653 580.34 386.538 733.687 435.142 778.829C469.581 774.085 517.336 692.163 538.248 657.665C528.815 654.431 470.978 704.474 456.695 713.004C456.113 712.421 456.113 712.421 455.53 711.839C468.642 688.715 493.766 634.472 492.501 628.517C478.429 649.558 462.926 678.882 440.986 694.05C438.333 695.884 398.022 632.922 425.585 546.186C435.544 514.849 497.642 494.023 524.328 487.029C526.068 495.512 531.315 550.623 531.315 550.623C531.315 550.623 541.155 482.283 539.27 471.425C533.518 438.294 450.535 492.019 436.968 499.338C428.937 503.67 446.467 467.251 445.627 458.443Z" fill="#7b80af" fill-rule="nonzero" opacity="1" stroke="none"/>
<path d="M643.825 482.038C625.872 490.093 599.048 541.866 665.82 729.314C779.198 540.076 787.582 501.388 791.644 488.734C794.808 478.877 843.91 545.954 848.812 557.368C849.977 555.621 892.357 481.574 879.476 482.171C784.602 486.571 693.058 459.949 643.825 482.038Z" fill="#7c9ad6" fill-rule="nonzero" opacity="1" stroke="none"/>
<path d="M538.367 121.832C534.208 118.897 473.357 134.442 461.587 118.546C456.356 111.482 283.842 193.527 256.607 292.467C246.737 328.325 508.387 142.358 538.367 121.832Z" fill="#424c97" fill-rule="nonzero" opacity="1" stroke="none"/>
<path d="M912.226 739.217C918.009 732.459 918.894 723.745 924.458 717.082C927.231 728.193 934.201 772.884 939.604 782.324C944.078 772.423 1008.65 588.459 909.027 479.548C906.298 476.563 873.798 482.902 873.798 482.902C872.66 736.618 907.393 733.816 912.226 739.217Z" fill="#bbdff1" fill-rule="nonzero" opacity="1" stroke="none"/>
<path d="M961.157 612.811C890.651 924.407 996.628 886.294 995.911 900.985C1023.5 878.703 1058.6 798.309 961.157 612.811Z" fill="#bbdff1" fill-rule="nonzero" opacity="1" stroke="none"/>
<path d="M726.402 540.578C734.763 490.004 712.301 484.944 702.519 493.977C686.704 508.578 660.27 610.023 693.173 690.343C713.438 666.925 774.245 534.87 758.134 493.378C753.14 480.519 729.235 489.23 726.402 540.578Z" fill="#bcbfde" fill-rule="nonzero" opacity="1" stroke="none"/>
<path d="M957.662 1033.39C967.417 1045.58 1002.35 1045.52 1003.68 1045.04C1001.25 1036.35 985.399 964.399 975.679 943.84C966.762 952.981 931.304 990.728 923.876 999.021C921.87 997.015 904.937 918.125 902.154 915.762C897.998 918.669 881.997 962.122 875.818 980.875C868.573 1002.87 931.41 1129.66 940.857 1153.83C941.74 1156.09 941.523 1043.27 957.662 1033.39Z" fill="#7b80af" fill-rule="nonzero" opacity="1" stroke="none"/>
<path d="M446.792 1033.39C446.21 1033.97 446.21 1033.97 445.627 1034.55C434.429 1021.31 425.694 1006.15 416.501 991.448C411.523 1021.7 483.526 1192.69 483.526 1192.69L521.937 1192.42C521.937 1192.42 464.703 1038.18 437.961 967.698C428.554 942.906 413.431 927.983 401.356 926.206C400.897 932.127 437.147 1016.96 446.792 1033.39Z" fill="#92b1d3" fill-rule="nonzero" opacity="1" stroke="none"/>
<path d="M152.62 1150.48C153.203 1151.06 153.203 1151.06 153.785 1151.64C238.849 1100.31 289.745 937.174 285.204 931.327C280.2 939.332 253.556 990.568 244.076 1006.01C240.174 991.379 236.075 864.404 232.408 859.085C229.796 870.02 218.914 1030.85 152.62 1150.48Z" fill="#666d9f" fill-rule="nonzero" opacity="1" stroke="none"/>
<path d="M636.111 76.8926C644.944 70.4051 599.879 45.0238 593.765 42.406C559.257 27.6315 516.995 35.3971 489.71 61.0338C481.262 68.9714 463.599 100.652 474.063 111.411C474.699 112.065 621.832 87.38 636.111 76.8926Z" fill="#201d5a" fill-rule="nonzero" opacity="1" stroke="none"/>
<path d="M908.189 477.489C893.266 516.37 1032.96 796.199 1040.96 837.081C1047.68 822.426 1082.98 694.46 908.189 477.489Z" fill="#bbdff1" fill-rule="nonzero" opacity="1" stroke="none"/>
<path d="M439.802 501.549C466.184 482.838 526.292 454.388 534.296 468.894C540.143 479.491 535.488 510.093 535.488 510.093C535.488 510.093 585.67 480.836 587.741 483.839C606.527 511.072 569.704 608.733 570.869 609.898C594.389 595.671 606.789 577.165 613.996 558.596C647.244 472.932 648.475 471.255 601.048 461.143C475.501 434.376 448.525 459.232 439.802 501.549Z" fill="#666d9f" fill-rule="nonzero" opacity="1" stroke="none"/>
<path d="M329.474 667.68C291.089 778.693 388.156 932.553 435.662 1084.17C441.127 1080.56 416.941 1001.49 417.084 994.943C431.647 1015.62 431.647 1015.62 446.21 1036.3C449.673 1026.63 402.133 928.342 402.521 927.954C418.327 944.419 418.327 944.419 434.134 960.885C439.974 951.193 431.809 941.474 429.31 930.437C445.938 940.305 457.883 949.263 477.083 948.342C464.462 939.992 413.285 945.321 348.451 777.59C336.59 746.907 331.181 724.362 329.474 667.68Z" fill="#7b80af" fill-rule="nonzero" opacity="1" stroke="none"/>
<path d="M954.167 821.935C935.016 803.743 905.673 897.514 899.772 896.721C901.462 918.624 911.234 1003.68 922.128 999.604C926.368 1008.7 965.667 949.098 970.926 921.132C975.37 897.496 959.753 829.959 954.167 821.935Z" fill="#4a5188" fill-rule="nonzero" opacity="1" stroke="none"/>
<path d="M973.39 616.888C1033.03 805.159 1025.56 838.803 1006.01 883.1C1004.96 877.664 1008.61 840.102 995.526 829.508C986.598 841.156 978.518 939.21 932.937 992.413C1070.25 907.778 1055.91 815.064 973.39 616.888Z" fill="#7c9ad6" fill-rule="nonzero" opacity="1" stroke="none"/>
<path d="M367.065 798.205C385.274 906.509 467.092 913.783 478.352 915.193C490.717 916.74 519.843 916.094 521.918 915.646C520.13 910.896 470.177 899.87 434.56 809.12C430.791 811.552 424.159 813.791 427.087 819.432C431.88 828.666 436.309 838.122 441.814 846.949C445.818 853.371 450.958 859.011 455.53 865.041C454.948 865.624 454.948 865.624 454.365 866.207C443.297 855.721 443.297 855.721 432.229 845.236C431.392 852.871 439.149 860.808 443.62 865.923C450.306 873.573 459.776 883.319 466.658 890.792C466.076 891.374 463.686 888.925 463.103 889.507C419.81 861.508 390.915 844.543 367.065 798.205Z" fill="#7b80af" fill-rule="nonzero" opacity="1" stroke="none"/>
<path d="M658.532 1153.77C651.175 1165.62 611.577 1168.19 501.549 1145.23C504.53 1153.21 522.283 1192.4 522.283 1192.4L690.562 1192.23C698.495 1185.89 669.558 1136.02 658.532 1153.77Z" fill="#2f2f3d" fill-rule="nonzero" opacity="1" stroke="none"/>
<path d="M826.06 483.364C853.799 485.551 897.718 477.829 898.806 451.893C899.894 425.956 870.479 440.635 861.474 443.013C854.074 444.967 845.507 477.579 840.576 478.249C823.412 480.578 767.812 480.047 761.353 473.588C765.112 470.552 810.866 456.815 814.087 450.108C823.813 429.858 794.752 405.107 776.484 417.604C766.055 424.739 731.107 467.94 724.124 472.42C719.745 475.229 784.204 480.063 826.06 483.364Z" fill="#1b1832" fill-rule="nonzero" opacity="1" stroke="none"/>
<path d="M335.531 622.131C327.31 643.926 301.138 758.12 295.992 777.274C272.686 864.026 374.791 910.274 377.473 909.313C372.951 901.906 303.902 826.87 335.531 622.131Z" fill="#666d9f" fill-rule="nonzero" opacity="1" stroke="none"/>
<path d="M647.762 86.7954C641.513 104.977 646.104 158.78 650.624 161.576C688.731 185.148 726.918 159.446 737.47 151.455C730.08 138.486 652.244 88.1437 647.762 86.7954Z" fill="#201d5a" fill-rule="nonzero" opacity="1" stroke="none"/>
<path d="M633.781 85.0479C518.799 138.135 532.655 147.564 529.51 152.62C601.108 226.557 608.014 132.354 633.781 85.0479Z" fill="#201d5a" fill-rule="nonzero" opacity="1" stroke="none"/>
<path d="M508.54 838.246C515.825 834.018 529.86 833.638 533.588 826.595C537.96 818.334 532.228 804.463 537.083 792.227C550.439 758.563 604.943 800.086 607.568 805.625C615.778 800.132 636.222 806.32 636.768 803.555C638.464 794.962 634.384 785.649 629.704 778.246C623.507 768.445 606.075 759.269 595.458 755.08C560.43 741.26 523.439 760.688 503.446 790.289C498.139 798.146 495.025 808.115 497.131 817.585C498.599 824.187 505.457 833.42 508.54 838.246Z" fill="#a49197" fill-rule="nonzero" opacity="1" stroke="none"/>
<path d="M634.364 750.868C634.946 751.45 780.723 618.001 787.044 549.478C780.968 549.478 759.842 564.603 754.084 562.665C750.411 561.429 645.054 742.439 634.364 750.868Z" fill="#e0deec" fill-rule="nonzero" opacity="1" stroke="none"/>
<path d="M620.966 521.937C612.708 536.132 577.182 615.604 565.044 639.606C577.348 641.354 633.112 647.51 636.111 649.509C643.79 637.293 623.276 524.248 620.966 521.937Z" fill="#ae7d7e" fill-rule="nonzero" opacity="1" stroke="none"/>
<path d="M867.372 659.412C873.699 674.317 898.998 533.772 879.681 492.208C847.145 490.086 822.153 552.902 867.372 659.412Z" fill="#bbdff1" fill-rule="nonzero" opacity="1" stroke="none"/>
<path d="M481.744 752.033C482.867 752.552 490.88 757.308 493.7 755.43C577.387 699.706 606.592 658.176 613.393 650.092C612.986 649.694 612.74 648.925 612.171 648.898C599.969 648.335 587.737 647.916 575.529 648.344C547.533 649.326 496.465 735.338 481.744 752.033Z" fill="#d1a9a2" fill-rule="nonzero" opacity="1" stroke="none"/>
<path d="M715.236 109.906C731.998 118.625 892.004 159.095 894.026 158.494C865.522 137.672 786.462 100.512 782.592 102.374C746.993 119.506 722.246 105.233 715.236 109.906Z" fill="#3937b8" fill-rule="nonzero" opacity="1" stroke="none"/>
<path d="M875.527 904.653C918.292 893.895 851.477 734.598 800.382 831.255C800.055 831.874 871.068 899.685 875.527 904.653Z" fill="#ada8af" fill-rule="nonzero" opacity="1" stroke="none"/>
<path d="M393.783 486.404C393.576 505.259 382.572 521.663 385.045 540.578C396.329 518.709 395.864 496.45 413.006 475.336C420.784 465.755 441.321 472.986 439.388 479.363C435.025 493.759 426.147 527.92 428.152 533.005C457.428 448.303 505.252 449.838 505.252 449.838C505.252 449.838 391.952 466.851 385.897 467.976C344.198 475.726 357.771 486.907 350.956 533.776C347.426 558.059 388.31 486.964 393.783 486.404Z" fill="#4a5188" fill-rule="nonzero" opacity="1" stroke="none"/>
<path d="M905.818 747.373C898.245 755.334 859.281 798.672 855.318 803.134C876.215 819.749 894.453 891.164 900.13 903.476C913.601 887.562 947.998 810.639 905.818 747.373Z" fill="#d1a9a2" fill-rule="nonzero" opacity="1" stroke="none"/>
<path d="M1049.7 784.654C1040.87 798.448 1048.42 816.242 1041.54 831.255C1036.31 816.459 1038.3 799.622 1031.06 785.819C1026.07 794.812 1051.01 847.008 1005.43 992.7C1003.7 998.239 1065.08 917.506 1049.7 784.654Z" fill="#92b1d3" fill-rule="nonzero" opacity="1" stroke="none"/>
<path d="M657.082 76.8926C667.531 84.7296 743.836 88.5492 758.44 91.4556C776.52 95.0536 789.614 84.5651 771.838 69.3198C760.702 59.7687 692.865 42.9173 657.082 76.8926Z" fill="#201d5a" fill-rule="nonzero" opacity="1" stroke="none"/>
<path d="M410.094 461.355C407.445 462.984 432.158 460.588 445.045 458.443C450.87 457.473 448.543 448.471 444.843 442.263C438.91 432.31 428.401 414.688 416.146 414.089C332.015 409.981 397.528 453.617 410.094 461.355Z" fill="#1b1832" fill-rule="nonzero" opacity="1" stroke="none"/>
<path d="M949.11 736.254C942.779 749.622 948.098 768.726 939.334 781.309C930.868 771.379 915.691 745.494 908.159 734.839C905.178 741.431 923.304 895.675 923.876 906.983C927.816 889.79 980.389 807.62 949.11 736.254Z" fill="#7b80af" fill-rule="nonzero" opacity="1" stroke="none"/>
<path d="M479.996 753.78C488.95 758.606 498.618 756.135 507.957 760.188C487.143 781.087 490.96 822.832 496.314 808.991C526.166 731.83 594.227 756.233 601.169 754.973C604.807 754.312 612.515 749.687 608.861 746.931C573.288 720.103 539.389 745.655 479.996 753.78Z" fill="#474559" fill-rule="nonzero" opacity="1" stroke="none"/>
<path d="M537.083 859.799C551.786 869.343 630.024 854.925 602.566 804.245C553.686 714.026 527.876 830.469 537.083 859.799Z" fill="#b48fc1" fill-rule="nonzero" opacity="1" stroke="none"/>
<path d="M890.368 519.857C887.881 525.156 881.535 664.112 866.789 656.5C863.295 648.045 848.415 721.108 883.793 720.945C939.626 808.533 896.343 769.091 890.368 519.857Z" fill="#7c9ad6" fill-rule="nonzero" opacity="1" stroke="none"/>
<path d="M463.686 817.275C546.763 892.293 576.618 857.416 596.766 851.536C608.415 848.136 545.726 870.612 521.613 843.839C506.436 826.987 467.819 799.146 463.686 817.275Z" fill="#d1a9a2" fill-rule="nonzero" opacity="1" stroke="none"/>
<path d="M324.328 667.091C337.357 649.559 401.138 504.152 394.841 485.772C393.448 481.707 360.255 497.332 353.994 504.851C344.48 516.279 320.486 658.223 324.328 667.091Z" fill="#7b80af" fill-rule="nonzero" opacity="1" stroke="none"/>
<path d="M447.958 1192.42C460.529 1192.51 473.106 1192.56 485.671 1192.16C483.11 1182.52 456.455 1120.75 448.303 1131.79C446.314 1134.48 440.749 1157.71 447.958 1192.42Z" fill="#1b1832" fill-rule="nonzero" opacity="1" stroke="none"/>
<path d="M564.723 451.112C570.381 454.846 611.918 459.299 604.073 453.783C619.422 423.771 616.129 416.745 571.201 419.501C552.784 420.631 564.275 453.134 564.723 451.112Z" fill="#1b1832" fill-rule="nonzero" opacity="1" stroke="none"/>
<path d="M475.336 113.591C526.294 119.095 578.395 98.6434 625.043 80.3877C579.038 80.5534 495.535 100.334 475.336 113.591Z" fill="#292a89" fill-rule="nonzero" opacity="1" stroke="none"/>
<path d="M555.724 651.839C552.971 652.25 539.746 652.797 536.629 656.858C533.111 661.442 504.78 704.108 464.002 742.257C522.233 727.834 556.802 656.696 555.724 651.839Z" fill="#92b1d3" fill-rule="nonzero" opacity="1" stroke="none"/>
<path d="M642.519 595.917C622.824 632.594 656.711 709.42 667.567 726.984C670.771 724.072 662.727 639.765 642.519 595.917Z" fill="#819ab4" fill-rule="nonzero" opacity="1" stroke="none"/>
<path d="M408.346 880.187C406.599 881.643 515.177 910.502 520.19 913.973C511.438 918.756 400.18 911.021 408.346 880.187Z" fill="#666d9f" fill-rule="nonzero" opacity="1" stroke="none"/>
<path d="M840.957 809.167C885.169 820.778 889.951 880.28 889.951 880.28C889.951 880.28 896.333 845.089 897.663 833.585C903.667 835.245 910.292 839.422 916.303 836.498C904.52 828.506 860.069 788.984 840.957 809.167Z" fill="#474559" fill-rule="nonzero" opacity="1" stroke="none"/>
<path d="M295.972 800.336C298.476 821.17 299.431 847.321 283.104 937.856C296.772 911.31 322.985 845.983 295.972 800.336Z" fill="#4a5188" fill-rule="nonzero" opacity="1" stroke="none"/>
<path d="M323.862 757.677C304.946 856.424 371.939 902.614 372.812 901.74C359.159 886.599 333.558 770.095 323.862 757.677Z" fill="#4a5188" fill-rule="nonzero" opacity="1" stroke="none"/>
<path d="M259.221 452.618C215.768 411.777 268.589 478.711 277.785 482.171C306.263 492.886 349.014 487.005 375.143 471.258C372.068 468.183 310.33 500.653 259.221 452.618Z" fill="#777ce7" fill-rule="nonzero" opacity="1" stroke="none"/>
<path d="M845.236 831.255C776.851 815.475 789.579 868.093 802.712 881.352C805.25 884.925 820.785 908.885 827.178 904.07C857.159 881.489 855.14 845.293 845.236 831.255Z" fill="#b48fc1" fill-rule="nonzero" opacity="1" stroke="none"/>
<path d="M245.29 311.452C227.489 401.939 279.41 486.553 272.433 478.619C157.513 347.927 240.159 342.741 245.29 311.452Z" fill="#201d5a" fill-rule="nonzero" opacity="1" stroke="none"/>
<path d="M989.118 820.77C987.327 829.777 968.088 862.401 966.982 873.779C965.476 889.284 970.936 906.109 972.101 921.643C982.195 894.356 1008.6 830.548 989.118 820.77Z" fill="#7b80af" fill-rule="nonzero" opacity="1" stroke="none"/>
<path d="M844.653 433.977C854.62 437.464 881.833 391.178 899.41 419.414C910.955 410.881 928.536 392.909 927.954 392.036C925.587 393.235 902.116 405.761 898.245 401.356C880.929 381.652 890.04 381.617 870.284 404.851C864.833 411.262 847.523 430.483 844.653 433.977Z" fill="#7c9ad6" fill-rule="nonzero" opacity="1" stroke="none"/>
<path d="M664.655 562.714C658.077 603.262 657.398 699.232 672.228 719.994C688.875 681.425 687.649 633.12 664.655 562.714Z" fill="#7b80af" fill-rule="nonzero" opacity="1" stroke="none"/>
<path d="M848.731 876.692C842.183 887.338 839.292 896.424 829.508 905.235C842.667 925.935 859.643 916.426 876.109 904.07C866.66 893.225 860.374 883.924 848.731 876.692Z" fill="#e0deec" fill-rule="nonzero" opacity="1" stroke="none"/>
<path d="M292.106 549.01C212.939 625.853 226.381 662.933 228.487 669.041C237.456 658.111 296.444 561.238 292.106 549.01Z" fill="#4a5188" fill-rule="nonzero" opacity="1" stroke="none"/>
<path d="M622.131 809.12C599.951 818.599 600.517 845.015 606.259 845.641C610.559 846.11 637.61 837.997 638.474 819.815C638.533 818.585 641.895 800.673 622.131 809.12Z" fill="#e0deec" fill-rule="nonzero" opacity="1" stroke="none"/>
<path d="M529.638 151.159C560.602 123.69 597.868 108.675 632.616 87.3779C623.258 84.8704 514.849 132.63 529.638 151.159Z" fill="#4a5188" fill-rule="nonzero" opacity="1" stroke="none"/>
<path d="M341.939 859.799C345.793 853.615 336.93 836.688 349.625 836.936C347.102 854.173 358.668 890.537 373.978 904.07C377.17 897.951 361.159 832.433 353.007 827.178C349.524 824.933 339.582 826.559 338.037 826.799C323.957 828.988 338.735 855.06 341.939 859.799Z" fill="#d1a9a2" fill-rule="nonzero" opacity="1" stroke="none"/>
<path d="M503.879 665.82C602.477 637.522 606.429 655.106 627.047 650.161C625.882 648.413 616.417 636.997 585.813 638.002C557.734 638.925 526.597 650.203 503.879 665.82Z" fill="#4a5188" fill-rule="nonzero" opacity="1" stroke="none"/>
<path d="M336.696 886.595C329.166 903.295 377.515 939.467 386.793 947.177C387.667 946.594 382.352 918.866 366.322 907.173C356.608 900.087 346.572 893.454 336.696 886.595Z" fill="#d1a9a2" fill-rule="nonzero" opacity="1" stroke="none"/>
<path d="M551.636 772.717C543.855 823.239 594.289 783.378 596.328 785.999C600.749 779.893 585.089 751.398 551.636 772.717Z" fill="#83537b" fill-rule="nonzero" opacity="1" stroke="none"/>
<path d="M354.754 366.405C330.809 374.246 308.735 399.22 300.58 404.269C322.136 400.338 328.737 386.213 349.677 379.809C358.565 377.091 360.727 387.139 368.735 387.375C395.808 388.176 410.185 377.563 403.884 377.564C382.672 377.571 380.166 387.546 354.754 366.405Z" fill="#7c9ad6" fill-rule="nonzero" opacity="1" stroke="none"/>
<path d="M313.778 525.15C272.013 555.064 292.796 576.552 289.729 624.421C291.016 621.356 317.479 530.467 313.778 525.15Z" fill="#383c73" fill-rule="nonzero" opacity="1" stroke="none"/>
<path d="M600.578 723.489C595.203 732.737 608.596 738.754 607.383 747.867C606.41 755.179 597.939 751.759 594.752 754.945C609.624 765.438 622.843 775.767 636.962 788.432C637.836 787.849 624.13 736.409 620.383 731.062C617.134 736.391 620.903 741.79 618.053 747.373C611.694 739.831 606.022 731.715 600.578 723.489Z" fill="#6c4255" fill-rule="nonzero" opacity="1" stroke="none"/>
<path d="M654.169 79.2227C675.166 88.5812 752.619 99.6326 766.596 94.3682C734.801 77.3397 656.704 77.787 654.169 79.2227Z" fill="#292a89" fill-rule="nonzero" opacity="1" stroke="none"/>
<path d="M845.236 777.664C831.239 791.248 817.062 804.648 802.712 817.857C805.005 820.151 856.972 807.01 862.129 802.712C859.799 801.256 856.595 796.595 853.974 795.139C857.963 791.85 862.431 789.184 866.789 786.401C860.316 786.17 840.69 793.506 838.828 791.644C841.498 788.1 847.282 782.631 845.236 777.664Z" fill="#6c4255" fill-rule="nonzero" opacity="1" stroke="none"/>
<path d="M467.551 1055.09L433.285 957.207C433.285 957.207 446.302 969.196 465.7 990.103C477.856 1003.2 467.551 1055.09 467.551 1055.09Z" fill="#4a5188" fill-rule="nonzero" opacity="1" stroke="none"/>
<path d="M632.942 510.94C637.392 484.319 690.201 472.723 689.624 472.699C671.287 471.928 572.013 455.136 605.629 468.188C613.747 471.34 632.738 491.86 632.942 510.94Z" fill="#666d9f" fill-rule="nonzero" opacity="1" stroke="none"/>
<path d="M924.458 714.751C920.452 723.143 913.84 730.732 912.438 739.925C911.864 743.689 931.255 773.198 937.274 785.236C943.157 767.877 932.917 732.119 924.458 714.751Z" fill="#7c9ad6" fill-rule="nonzero" opacity="1" stroke="none"/>
<path d="M269.124 291.842C247.151 303.43 243.963 330.014 248.153 335.531C274.475 329.618 270.872 293.59 269.124 291.842Z" fill="#777ce7" fill-rule="nonzero" opacity="1" stroke="none"/>
<path d="M507.957 837.663C537.726 862.816 553.497 852.886 553.497 852.886C553.497 852.886 536.793 825.27 533.005 826.013C523.969 827.784 516.306 833.78 507.957 837.663Z" fill="#bcbfde" fill-rule="nonzero" opacity="1" stroke="none"/>
<path d="M230.095 344.852C216.552 361.803 212.951 398.862 227.183 416.501C228.947 414.19 237.725 356.402 230.095 344.852Z" fill="#5d5edb" fill-rule="nonzero" opacity="1" stroke="none"/>
<path d="M943.682 583.685C936.369 592.448 942.07 654.186 949.507 669.315C975.595 632.865 948.646 590.662 943.682 583.685Z" fill="#f7f7f9" fill-rule="nonzero" opacity="1" stroke="none"/>
<path d="M810.867 829.508C811.307 829.697 820.688 858.624 823.683 862.711C825.771 858.889 842.906 844.945 844.071 845.818C856.578 828.711 826.478 816.604 810.867 829.508Z" fill="#83537b" fill-rule="nonzero" opacity="1" stroke="none"/>
<path d="M452.618 817.275C487.347 803.627 501.355 830.673 510.287 838.828C506.015 828.149 504.533 815.869 497.472 806.79C492.94 800.963 484.853 795.207 477.666 796.887C467.183 799.337 460.967 810.479 452.618 817.275Z" fill="#6c4255" fill-rule="nonzero" opacity="1" stroke="none"/>
<path d="M364.657 894.167C376.383 871.425 340.637 857.411 353.007 836.498C341.825 828.532 340.703 848.174 340.957 855.697C341.437 869.886 356.182 883.926 364.657 894.167Z" fill="#ae7d7e" fill-rule="nonzero" opacity="1" stroke="none"/>
<path d="M536.233 836.179C537.403 776.68 574.578 765.027 574.578 765.027C574.578 765.027 521.776 762.79 536.233 836.179Z" fill="#474559" fill-rule="nonzero" opacity="1" stroke="none"/>
<path d="M995.526 742.712C981.058 837.607 993.375 827.214 998.438 833.585C1003.32 828.702 999.288 750.708 995.526 742.712Z" fill="#9dbdef" fill-rule="nonzero" opacity="1" stroke="none"/>
<path d="M860.381 913.973C865.389 918.397 878.439 928.245 880.187 929.701C887.086 920.06 890.474 907.694 894.75 897.08C882.687 900.997 871.245 907.514 860.381 913.973Z" fill="#d1a9a2" fill-rule="nonzero" opacity="1" stroke="none"/>
<path d="M847.566 388.541C837.89 389.561 812.913 399.932 819.826 407.07C840.545 428.462 857.517 387.491 847.566 388.541Z" fill="#7c9ad6" fill-rule="nonzero" opacity="1" stroke="none"/>
<path d="M879.604 484.989C863.501 511.769 890.41 535.761 890.917 523.004C891.317 512.909 883 479.343 879.604 484.989Z" fill="#f7f7f9" fill-rule="nonzero" opacity="1" stroke="none"/>
<path d="M1001.35 386.793C985.014 389.686 977.322 400.816 973.3 421.634C983.951 419.556 1012.9 387.784 1001.35 386.793Z" fill="#9dbdef" fill-rule="nonzero" opacity="1" stroke="none"/>
<path d="M686.208 385.045C672.094 387.848 657.421 388.792 643.102 387.375C674.484 402.195 695.54 395.625 686.208 385.045Z" fill="#7c9ad6" fill-rule="nonzero" opacity="1" stroke="none"/>
<path d="M725.113 887.726C719.488 890.022 734.801 915.268 739.676 917.435C745.384 919.972 755.54 915.519 752.491 908.114C751.235 905.063 728.46 886.36 725.113 887.726Z" fill="#f7f7f9" fill-rule="nonzero" opacity="1" stroke="none"/>
<path d="M602.325 797.469C596.974 796.989 593.826 813.834 596.803 814.499C609.896 817.423 588.452 853.144 596.875 848.885C611.231 841.625 614.239 798.537 602.325 797.469Z" fill="#474559" fill-rule="nonzero" opacity="1" stroke="none"/>
<path d="M831.838 870.284C837.372 874.362 837.372 874.362 842.906 878.439C835.916 893.002 835.916 893.002 828.925 907.565C860.181 870.295 854.402 860.804 851.399 860.629C848.395 860.455 836.304 870.284 831.838 870.284Z" fill="#474559" fill-rule="nonzero" opacity="1" stroke="none"/>
<path d="M891.255 874.362C889.67 877.572 878.001 901.498 870.867 907.565C871.74 908.439 898.307 898.903 900.773 882.641C895.976 881.195 895.347 878.454 891.255 874.362Z" fill="#6c4255" fill-rule="nonzero" opacity="1" stroke="none"/>
<path d="M497.098 773.797C493.844 777.063 481.83 790.235 477.083 796.887C484.024 800.661 482.467 801.688 486.986 806.207C494.496 801.185 502.999 780.03 497.098 773.797Z" fill="#83537b" fill-rule="nonzero" opacity="1" stroke="none"/>
<path d="M600.578 782.906C595.358 783.96 593.469 788.805 589.51 792.809C575.607 806.871 605.267 799.728 606.985 798.052C611.95 793.209 606.792 781.651 600.578 782.906Z" fill="#f7f7f9" fill-rule="nonzero" opacity="1" stroke="none"/>
<path d="M793.974 859.216C784.962 875.209 793.262 883.326 807.372 890.672C808.828 889.216 803.151 863.326 793.974 859.216Z" fill="#bcbfde" fill-rule="nonzero" opacity="1" stroke="none"/>
<path d="M835.333 856.886C839.815 862.863 850.683 859.319 856.304 862.129C859.657 858.775 861.429 843.993 853.974 845.236C848.536 846.142 839.713 853.602 835.333 856.886Z" fill="#f7f7f9" fill-rule="nonzero" opacity="1" stroke="none"/>
<path d="M636.694 800.382C630.619 796.696 603.051 796.465 606.614 808.153C609.402 817.297 652.006 809.671 636.694 800.382Z" fill="#bba2e2" fill-rule="nonzero" opacity="1" stroke="none"/>
<path d="M952.419 392.036C948.216 392.9 943.303 403.947 943.682 406.599C945.147 416.854 963.905 389.675 952.419 392.036Z" fill="#7c9ad6" fill-rule="nonzero" opacity="1" stroke="none"/>
<path d="M579.607 781.741C575.344 781.125 578.135 785.237 577.859 790.479C577.088 805.126 598.879 784.528 579.607 781.741Z" fill="#e0deec" fill-rule="nonzero" opacity="1" stroke="none"/>
<path d="M834.168 840.576C832.471 842.272 832.316 845.173 831.838 847.566C829.594 858.788 837.77 851.418 842.906 847.566C841.065 843.884 838.701 842.26 834.168 840.576Z" fill="#e0deec" fill-rule="nonzero" opacity="1" stroke="none"/>
<g opacity="1">
<clipPath id="ClipPath">
<path d="M105.256-126.632L598.735-126.632L598.735-126.632L598.735 616.743L598.735 616.743L105.256 616.743L105.256 616.743L105.256-126.632L105.256-126.632Z"/>
</clipPath>
<g clip-path="url(#ClipPath)">
<path d="M426.678 359.728L348.28 131.563L264.96 359.728L426.678 359.728ZM311.717 54.9229L390.819 54.9229L578.202 571.368L501.561 571.368L449.178 416.681L244.921 416.681L189.022 571.368L117.303 571.368L311.717 54.9229Z" fill="#ffffff" fill-rule="nonzero" filter="url(#Filter)" stroke="none"/>
</g>
</g>
<g opacity="1">
<clipPath id="ClipPath_2">
<path d="M608.176-127.824L1136.99-127.824L1136.99-127.824L1136.99 737.176L1136.99 737.176L608.176 737.176L608.176 737.176L608.176-127.824L608.176-127.824Z"/>
</clipPath>
<g clip-path="url(#ClipPath_2)">
<path d="M664.52 53.7307L732.723 53.7307L732.723 305.449L984.442 53.7307L1081.13 53.7307L866.317 261.855L1087.1 570.176L996.043 570.176L815.34 311.074L732.723 390.176L732.723 570.176L664.52 570.176L664.52 53.7307Z" fill="#ffffff" fill-rule="nonzero" filter="url(#Filter_2)" stroke="none"/>
</g>
</g>
<g opacity="1">
<clipPath id="ClipPath_3">
<path d="M91.7473 442.683L661.961 442.683L661.961 442.683L661.961 1307.68L661.961 1307.68L91.7473 1307.68L91.7473 1307.68L91.7473 442.683L91.7473 442.683Z"/>
</clipPath>
<g clip-path="url(#ClipPath_3)">
<path d="M346.372 1080.91C370.044 1080.91 389.497 1078.45 404.731 1073.53C431.919 1064.39 454.184 1046.81 471.528 1020.8C485.356 999.94 495.317 973.222 501.411 940.643C504.927 921.19 506.684 903.143 506.684 886.503C506.684 822.518 493.97 772.831 468.54 737.44C443.11 702.05 402.153 684.354 345.669 684.354L221.567 684.354L221.567 1080.91L346.372 1080.91ZM151.255 624.237L360.434 624.237C431.45 624.237 486.528 649.433 525.669 699.823C560.591 745.292 578.052 803.534 578.052 874.55C578.052 929.393 567.739 978.964 547.114 1023.26C510.786 1101.54 448.325 1140.68 359.731 1140.68L151.255 1140.68L151.255 624.237Z" fill="#ffffff" fill-rule="nonzero" filter="url(#Filter_3)" stroke="none"/>
</g>
</g>
<g opacity="1">
<clipPath id="ClipPath_4">
<path d="M610.835 446.35L1156.83 446.35L1156.83 446.35L1156.83 1311.35L1156.83 1311.35L610.835 1311.35L610.835 1311.35L610.835 446.35L610.835 446.35Z"/>
</clipPath>
<g clip-path="url(#ClipPath_4)">
<path d="M861.241 846.225C890.772 846.225 913.741 842.123 930.147 833.92C955.929 821.029 968.819 797.826 968.819 764.31C968.819 730.56 955.108 707.826 927.686 696.107C912.218 689.545 889.249 686.264 858.78 686.264L733.976 686.264L733.976 846.225L861.241 846.225ZM884.796 1084.58C927.686 1084.58 958.272 1072.16 976.554 1047.32C988.038 1031.61 993.78 1012.63 993.78 990.365C993.78 952.865 977.022 927.318 943.507 913.725C925.694 906.459 902.14 902.826 872.843 902.826L733.976 902.826L733.976 1084.58L884.796 1084.58ZM665.421 627.904L887.257 627.904C947.726 627.904 990.733 645.951 1016.28 682.045C1031.28 703.373 1038.78 727.982 1038.78 755.873C1038.78 788.451 1029.53 815.17 1011.01 836.029C1001.4 847.045 987.569 857.123 969.522 866.264C996.007 876.342 1015.82 887.709 1028.94 900.365C1052.14 922.865 1063.75 953.92 1063.75 993.529C1063.75 1026.81 1053.32 1056.93 1032.46 1083.88C1001.28 1124.19 951.71 1144.35 883.741 1144.35L665.421 1144.35L665.421 627.904Z" fill="#ffffff" fill-rule="nonzero" filter="url(#Filter_4)" stroke="none"/>
</g>
</g>
</g>
</g>
</svg>
