<svg id="visual" viewBox="0 0 900 450" width="900" height="450" xmlns="http://www.w3.org/2000/svg" xmlns:xlink="http://www.w3.org/1999/xlink" version="1.1"><path d="M0 114L30 105.7C60 97.3 120 80.7 180 80.7C240 80.7 300 97.3 360 103.3C420 109.3 480 104.7 540 106.8C600 109 660 118 720 112.8C780 107.7 840 88.3 870 78.7L900 69L900 0L870 0C840 0 780 0 720 0C660 0 600 0 540 0C480 0 420 0 360 0C300 0 240 0 180 0C120 0 60 0 30 0L0 0Z" fill="#ffffff"></path><path d="M0 177L30 165.7C60 154.3 120 131.7 180 130.2C240 128.7 300 148.3 360 152.2C420 156 480 144 540 143.2C600 142.3 660 152.7 720 145.8C780 139 840 115 870 103L900 91L900 67L870 76.7C840 86.3 780 105.7 720 110.8C660 116 600 107 540 104.8C480 102.7 420 107.3 360 101.3C300 95.3 240 78.7 180 78.7C120 78.7 60 95.3 30 103.7L0 112Z" fill="#f8fbfc"></path><path d="M0 253L30 256C60 259 120 265 180 269.5C240 274 300 277 360 279.3C420 281.7 480 283.3 540 277.3C600 271.3 660 257.7 720 256.2C780 254.7 840 265.3 870 270.7L900 276L900 89L870 101C840 113 780 137 720 143.8C660 150.7 600 140.3 540 141.2C480 142 420 154 360 150.2C300 146.3 240 126.7 180 128.2C120 129.7 60 152.3 30 163.7L0 175Z" fill="#f1f6f9"></path><path d="M0 303L30 303.7C60 304.3 120 305.7 180 312.3C240 319 300 331 360 332.5C420 334 480 325 540 322C600 319 660 322 720 326.5C780 331 840 337 870 340L900 343L900 274L870 268.7C840 263.3 780 252.7 720 254.2C660 255.7 600 269.3 540 275.3C480 281.3 420 279.7 360 277.3C300 275 240 272 180 267.5C120 263 60 257 30 254L0 251Z" fill="#ebf2f5"></path><path d="M0 366L30 366C60 366 120 366 180 372C240 378 300 390 360 393.7C420 397.3 480 392.7 540 388.2C600 383.7 660 379.3 720 383.8C780 388.3 840 401.7 870 408.3L900 415L900 341L870 338C840 335 780 329 720 324.5C660 320 600 317 540 320C480 323 420 332 360 330.5C300 329 240 317 180 310.3C120 303.7 60 302.3 30 301.7L0 301Z" fill="#e4edf2"></path><path d="M0 451L30 451C60 451 120 451 180 451C240 451 300 451 360 451C420 451 480 451 540 451C600 451 660 451 720 451C780 451 840 451 870 451L900 451L900 413L870 406.3C840 399.7 780 386.3 720 381.8C660 377.3 600 381.7 540 386.2C480 390.7 420 395.3 360 391.7C300 388 240 376 180 370C120 364 60 364 30 364L0 364Z" fill="#dde9ef"></path></svg>