<svg id="visual" viewBox="0 0 900 600" width="900" height="600" xmlns="http://www.w3.org/2000/svg" xmlns:xlink="http://www.w3.org/1999/xlink" version="1.1"><g stroke-width="1" stroke-linejoin="bevel"><path d="M422.7 247L488.3 381L524.3 259Z" fill="#101010" stroke="#101010"></path><path d="M422.7 247L419.7 392L488.3 381Z" fill="#121212" stroke="#121212"></path><path d="M419.7 392L533.3 459L488.3 381Z" fill="#151515" stroke="#151515"></path><path d="M677.9 330L667.9 243L524.3 259Z" fill="#141414" stroke="#141414"></path><path d="M262.1 398L375.7 452L419.7 392Z" fill="#161616" stroke="#161616"></path><path d="M419.7 392L375.7 452L533.3 459Z" fill="#1a1a1a" stroke="#1a1a1a"></path><path d="M677.9 330L524.3 259L488.3 381Z" fill="#191919" stroke="#191919"></path><path d="M524.3 259L527.3 83L422.7 247Z" fill="#171717" stroke="#171717"></path><path d="M533.3 459L677.9 330L488.3 381Z" fill="#121212" stroke="#121212"></path><path d="M422.7 247L262.1 398L419.7 392Z" fill="#141414" stroke="#141414"></path><path d="M655.9 149L527.3 83L524.3 259Z" fill="#121212" stroke="#121212"></path><path d="M422.7 247L244.1 202L262.1 398Z" fill="#161616" stroke="#161616"></path><path d="M527.3 83L364.7 97L422.7 247Z" fill="#191919" stroke="#191919"></path><path d="M364.7 97L244.1 202L422.7 247Z" fill="#101010" stroke="#101010"></path><path d="M667.9 243L655.9 149L524.3 259Z" fill="#151515" stroke="#151515"></path><path d="M479.3 600L614.9 516L533.3 459Z" fill="#191919" stroke="#191919"></path><path d="M533.3 459L614.9 516L677.9 330Z" fill="#191919" stroke="#191919"></path><path d="M368.7 600L479.3 600L375.7 452Z" fill="#191919" stroke="#191919"></path><path d="M375.7 452L479.3 600L533.3 459Z" fill="#181818" stroke="#181818"></path><path d="M141.6 510L241.1 517L262.1 398Z" fill="#161616" stroke="#161616"></path><path d="M262.1 398L241.1 517L375.7 452Z" fill="#181818" stroke="#181818"></path><path d="M241.1 517L368.7 600L375.7 452Z" fill="#0e0e0e" stroke="#0e0e0e"></path><path d="M364.7 97L224.1 119L244.1 202Z" fill="#141414" stroke="#141414"></path><path d="M244.1 202L99.6 370L262.1 398Z" fill="#121212" stroke="#121212"></path><path d="M626.9 0L541.3 0L527.3 83Z" fill="#171717" stroke="#171717"></path><path d="M527.3 83L354.7 0L364.7 97Z" fill="#151515" stroke="#151515"></path><path d="M364.7 97L232.1 0L224.1 119Z" fill="#0e0e0e" stroke="#0e0e0e"></path><path d="M677.9 330L790.4 329L667.9 243Z" fill="#121212" stroke="#121212"></path><path d="M667.9 243L759.4 118L655.9 149Z" fill="#141414" stroke="#141414"></path><path d="M791.4 507L790.4 329L677.9 330Z" fill="#121212" stroke="#121212"></path><path d="M541.3 0L354.7 0L527.3 83Z" fill="#0e0e0e" stroke="#0e0e0e"></path><path d="M790.4 329L797.4 233L667.9 243Z" fill="#151515" stroke="#151515"></path><path d="M655.9 149L626.9 0L527.3 83Z" fill="#101010" stroke="#101010"></path><path d="M759.4 118L626.9 0L655.9 149Z" fill="#171717" stroke="#171717"></path><path d="M479.3 600L656.9 600L614.9 516Z" fill="#161616" stroke="#161616"></path><path d="M614.9 516L791.4 507L677.9 330Z" fill="#121212" stroke="#121212"></path><path d="M797.4 233L759.4 118L667.9 243Z" fill="#171717" stroke="#171717"></path><path d="M241.1 517L250.1 600L368.7 600Z" fill="#101010" stroke="#101010"></path><path d="M92.6 249L99.6 370L244.1 202Z" fill="#181818" stroke="#181818"></path><path d="M241.1 517L162.6 600L250.1 600Z" fill="#121212" stroke="#121212"></path><path d="M232.1 0L152.6 104L224.1 119Z" fill="#161616" stroke="#161616"></path><path d="M224.1 119L152.6 104L244.1 202Z" fill="#151515" stroke="#151515"></path><path d="M152.6 104L92.6 249L244.1 202Z" fill="#1a1a1a" stroke="#1a1a1a"></path><path d="M656.9 600L791.4 507L614.9 516Z" fill="#101010" stroke="#101010"></path><path d="M790.4 329L900 231L797.4 233Z" fill="#171717" stroke="#171717"></path><path d="M99.6 370L141.6 510L262.1 398Z" fill="#191919" stroke="#191919"></path><path d="M354.7 0L232.1 0L364.7 97Z" fill="#171717" stroke="#171717"></path><path d="M0 600L162.6 600L141.6 510Z" fill="#0e0e0e" stroke="#0e0e0e"></path><path d="M141.6 510L162.6 600L241.1 517Z" fill="#111111" stroke="#111111"></path><path d="M232.1 0L159.6 0L152.6 104Z" fill="#141414" stroke="#141414"></path><path d="M0 127L0 204L92.6 249Z" fill="#181818" stroke="#181818"></path><path d="M900 469L900 354L790.4 329Z" fill="#161616" stroke="#161616"></path><path d="M797.4 233L900 158L759.4 118Z" fill="#111111" stroke="#111111"></path><path d="M900 354L900 231L790.4 329Z" fill="#101010" stroke="#101010"></path><path d="M759.4 118L807.4 0L626.9 0Z" fill="#191919" stroke="#191919"></path><path d="M656.9 600L801.4 600L791.4 507Z" fill="#121212" stroke="#121212"></path><path d="M791.4 507L900 469L790.4 329Z" fill="#111111" stroke="#111111"></path><path d="M900 231L900 158L797.4 233Z" fill="#141414" stroke="#141414"></path><path d="M900 158L807.4 0L759.4 118Z" fill="#151515" stroke="#151515"></path><path d="M900 600L900 469L791.4 507Z" fill="#141414" stroke="#141414"></path><path d="M92.6 249L0 359L99.6 370Z" fill="#141414" stroke="#141414"></path><path d="M99.6 370L0 519L141.6 510Z" fill="#101010" stroke="#101010"></path><path d="M0 204L0 359L92.6 249Z" fill="#161616" stroke="#161616"></path><path d="M0 127L92.6 249L152.6 104Z" fill="#111111" stroke="#111111"></path><path d="M0 0L0 127L152.6 104Z" fill="#171717" stroke="#171717"></path><path d="M0 359L0 519L99.6 370Z" fill="#191919" stroke="#191919"></path><path d="M801.4 600L900 600L791.4 507Z" fill="#141414" stroke="#141414"></path><path d="M900 158L900 0L807.4 0Z" fill="#191919" stroke="#191919"></path><path d="M0 519L0 600L141.6 510Z" fill="#161616" stroke="#161616"></path><path d="M159.6 0L0 0L152.6 104Z" fill="#191919" stroke="#191919"></path></g></svg>