<svg id="visual" viewBox="0 0 900 600" width="900" height="600" xmlns="http://www.w3.org/2000/svg" xmlns:xlink="http://www.w3.org/1999/xlink" version="1.1"><g stroke-width="1" stroke-linejoin="bevel"><path d="M378.7 328L360.7 259L254.1 364Z" fill="#1e1e1e" stroke="#1e1e1e"></path><path d="M360.7 259L285.1 229L254.1 364Z" fill="#1b1b1b" stroke="#1b1b1b"></path><path d="M146.6 394L226.1 455L254.1 364Z" fill="#1e1e1e" stroke="#1e1e1e"></path><path d="M254.1 364L348.7 507L378.7 328Z" fill="#222222" stroke="#222222"></path><path d="M285.1 229L146.6 238L254.1 364Z" fill="#202020" stroke="#202020"></path><path d="M146.6 238L146.6 394L254.1 364Z" fill="#212121" stroke="#212121"></path><path d="M226.1 455L348.7 507L254.1 364Z" fill="#191919" stroke="#191919"></path><path d="M402.7 90L260.1 108L285.1 229Z" fill="#202020" stroke="#202020"></path><path d="M285.1 229L260.1 108L146.6 238Z" fill="#222222" stroke="#222222"></path><path d="M504.3 447L522.3 351L378.7 328Z" fill="#1a1a1a" stroke="#1a1a1a"></path><path d="M378.7 328L526.3 255L360.7 259Z" fill="#1c1c1c" stroke="#1c1c1c"></path><path d="M360.7 259L402.7 90L285.1 229Z" fill="#202020" stroke="#202020"></path><path d="M522.3 351L526.3 255L378.7 328Z" fill="#191919" stroke="#191919"></path><path d="M496.3 147L402.7 90L360.7 259Z" fill="#191919" stroke="#191919"></path><path d="M348.7 507L504.3 447L378.7 328Z" fill="#1e1e1e" stroke="#1e1e1e"></path><path d="M526.3 255L496.3 147L360.7 259Z" fill="#171717" stroke="#171717"></path><path d="M260.1 108L94.6 128L146.6 238Z" fill="#1d1d1d" stroke="#1d1d1d"></path><path d="M0 330L89.6 489L146.6 394Z" fill="#212121" stroke="#212121"></path><path d="M129.6 0L94.6 128L260.1 108Z" fill="#212121" stroke="#212121"></path><path d="M0 330L146.6 394L146.6 238Z" fill="#1c1c1c" stroke="#1c1c1c"></path><path d="M146.6 394L89.6 489L226.1 455Z" fill="#1d1d1d" stroke="#1d1d1d"></path><path d="M226.1 455L274.1 600L348.7 507Z" fill="#191919" stroke="#191919"></path><path d="M154.6 600L274.1 600L226.1 455Z" fill="#212121" stroke="#212121"></path><path d="M348.7 507L410.7 600L504.3 447Z" fill="#171717" stroke="#171717"></path><path d="M0 245L0 330L146.6 238Z" fill="#191919" stroke="#191919"></path><path d="M274.1 600L410.7 600L348.7 507Z" fill="#1a1a1a" stroke="#1a1a1a"></path><path d="M94.6 128L0 245L146.6 238Z" fill="#222222" stroke="#222222"></path><path d="M400.7 0L248.1 0L260.1 108Z" fill="#1d1d1d" stroke="#1d1d1d"></path><path d="M553.3 0L400.7 0L402.7 90Z" fill="#171717" stroke="#171717"></path><path d="M402.7 90L400.7 0L260.1 108Z" fill="#191919" stroke="#191919"></path><path d="M89.6 489L154.6 600L226.1 455Z" fill="#212121" stroke="#212121"></path><path d="M0 0L0 148L94.6 128Z" fill="#222222" stroke="#222222"></path><path d="M94.6 128L0 148L0 245Z" fill="#181818" stroke="#181818"></path><path d="M248.1 0L129.6 0L260.1 108Z" fill="#171717" stroke="#171717"></path><path d="M522.3 351L659.9 361L526.3 255Z" fill="#1a1a1a" stroke="#1a1a1a"></path><path d="M526.3 255L646.9 106L496.3 147Z" fill="#1d1d1d" stroke="#1d1d1d"></path><path d="M496.3 147L553.3 0L402.7 90Z" fill="#1b1b1b" stroke="#1b1b1b"></path><path d="M668.9 447L659.9 361L522.3 351Z" fill="#1e1e1e" stroke="#1e1e1e"></path><path d="M668.9 447L522.3 351L504.3 447Z" fill="#222222" stroke="#222222"></path><path d="M410.7 600L519.3 600L504.3 447Z" fill="#171717" stroke="#171717"></path><path d="M0 330L0 518L89.6 489Z" fill="#1d1d1d" stroke="#1d1d1d"></path><path d="M89.6 489L0 600L154.6 600Z" fill="#1c1c1c" stroke="#1c1c1c"></path><path d="M659.9 361L677.9 220L526.3 255Z" fill="#1e1e1e" stroke="#1e1e1e"></path><path d="M519.3 600L668.9 447L504.3 447Z" fill="#171717" stroke="#171717"></path><path d="M659.9 361L791.4 273L677.9 220Z" fill="#1e1e1e" stroke="#1e1e1e"></path><path d="M646.9 106L553.3 0L496.3 147Z" fill="#212121" stroke="#212121"></path><path d="M677.9 220L646.9 106L526.3 255Z" fill="#212121" stroke="#212121"></path><path d="M0 518L0 600L89.6 489Z" fill="#171717" stroke="#171717"></path><path d="M129.6 0L0 0L94.6 128Z" fill="#212121" stroke="#212121"></path><path d="M777.4 87L636.9 0L646.9 106Z" fill="#181818" stroke="#181818"></path><path d="M646.9 106L636.9 0L553.3 0Z" fill="#171717" stroke="#171717"></path><path d="M519.3 600L674.9 600L668.9 447Z" fill="#1a1a1a" stroke="#1a1a1a"></path><path d="M794.4 390L791.4 273L659.9 361Z" fill="#1e1e1e" stroke="#1e1e1e"></path><path d="M794.4 390L659.9 361L668.9 447Z" fill="#212121" stroke="#212121"></path><path d="M677.9 220L777.4 87L646.9 106Z" fill="#191919" stroke="#191919"></path><path d="M798.4 455L794.4 390L668.9 447Z" fill="#1b1b1b" stroke="#1b1b1b"></path><path d="M763.4 600L798.4 455L668.9 447Z" fill="#1c1c1c" stroke="#1c1c1c"></path><path d="M794.4 390L900 353L791.4 273Z" fill="#1e1e1e" stroke="#1e1e1e"></path><path d="M791.4 273L777.4 87L677.9 220Z" fill="#171717" stroke="#171717"></path><path d="M674.9 600L763.4 600L668.9 447Z" fill="#202020" stroke="#202020"></path><path d="M900 110L796.4 0L777.4 87Z" fill="#1c1c1c" stroke="#1c1c1c"></path><path d="M777.4 87L796.4 0L636.9 0Z" fill="#202020" stroke="#202020"></path><path d="M900 240L777.4 87L791.4 273Z" fill="#181818" stroke="#181818"></path><path d="M900 440L794.4 390L798.4 455Z" fill="#222222" stroke="#222222"></path><path d="M900 440L900 353L794.4 390Z" fill="#1b1b1b" stroke="#1b1b1b"></path><path d="M900 353L900 240L791.4 273Z" fill="#222222" stroke="#222222"></path><path d="M900 600L900 440L798.4 455Z" fill="#202020" stroke="#202020"></path><path d="M900 240L900 110L777.4 87Z" fill="#212121" stroke="#212121"></path><path d="M763.4 600L900 600L798.4 455Z" fill="#181818" stroke="#181818"></path><path d="M900 110L900 0L796.4 0Z" fill="#202020" stroke="#202020"></path></g></svg>