<svg id="visual" viewBox="0 0 900 600" width="900" height="600" xmlns="http://www.w3.org/2000/svg" xmlns:xlink="http://www.w3.org/1999/xlink" version="1.1"><g stroke-width="1" stroke-linejoin="bevel"><path d="M486 292L528.5 216L411 212Z" fill="#252525" stroke="#252525"></path><path d="M528.5 216L461 123L411 212Z" fill="#2c2c2c" stroke="#2c2c2c"></path><path d="M411 212L358.5 313L486 292Z" fill="#232323" stroke="#232323"></path><path d="M411 212L331.5 239L358.5 313Z" fill="#212121" stroke="#212121"></path><path d="M308.5 125L331.5 239L411 212Z" fill="#2c2c2c" stroke="#2c2c2c"></path><path d="M416 394L572.5 332L486 292Z" fill="#2a2a2a" stroke="#2a2a2a"></path><path d="M486 292L572.5 332L528.5 216Z" fill="#232323" stroke="#232323"></path><path d="M358.5 313L416 394L486 292Z" fill="#2a2a2a" stroke="#2a2a2a"></path><path d="M691 102L546.5 61L528.5 216Z" fill="#171717" stroke="#171717"></path><path d="M528.5 216L546.5 61L461 123Z" fill="#252525" stroke="#252525"></path><path d="M362.5 0L308.5 125L461 123Z" fill="#2c2c2c" stroke="#2c2c2c"></path><path d="M461 123L308.5 125L411 212Z" fill="#252525" stroke="#252525"></path><path d="M674 401L653 328L572.5 332Z" fill="#171717" stroke="#171717"></path><path d="M572.5 332L653 328L528.5 216Z" fill="#2c2c2c" stroke="#2c2c2c"></path><path d="M308.5 125L244 229L331.5 239Z" fill="#2a2a2a" stroke="#2a2a2a"></path><path d="M331.5 239L223 305L358.5 313Z" fill="#1b1b1b" stroke="#1b1b1b"></path><path d="M332.5 432L436 460L416 394Z" fill="#252525" stroke="#252525"></path><path d="M416 394L571.5 435L572.5 332Z" fill="#1f1f1f" stroke="#1f1f1f"></path><path d="M332.5 432L416 394L358.5 313Z" fill="#212121" stroke="#212121"></path><path d="M416 394L436 460L571.5 435Z" fill="#2a2a2a" stroke="#2a2a2a"></path><path d="M546.5 61L449 0L461 123Z" fill="#232323" stroke="#232323"></path><path d="M659 0L524.5 0L546.5 61Z" fill="#252525" stroke="#252525"></path><path d="M546.5 61L524.5 0L449 0Z" fill="#2a2a2a" stroke="#2a2a2a"></path><path d="M223 305L332.5 432L358.5 313Z" fill="#232323" stroke="#232323"></path><path d="M653 328L710 213L528.5 216Z" fill="#1f1f1f" stroke="#1f1f1f"></path><path d="M308.5 125L260 92L244 229Z" fill="#2c2c2c" stroke="#2c2c2c"></path><path d="M362.5 0L260 92L308.5 125Z" fill="#2c2c2c" stroke="#2c2c2c"></path><path d="M449 0L362.5 0L461 123Z" fill="#1f1f1f" stroke="#1f1f1f"></path><path d="M190 384L223 305L132.5 321Z" fill="#2c2c2c" stroke="#2c2c2c"></path><path d="M244 229L223 305L331.5 239Z" fill="#282828" stroke="#282828"></path><path d="M710 213L691 102L528.5 216Z" fill="#232323" stroke="#232323"></path><path d="M571.5 435L674 401L572.5 332Z" fill="#1b1b1b" stroke="#1b1b1b"></path><path d="M653 328L754.5 278L710 213Z" fill="#191919" stroke="#191919"></path><path d="M674 401L754.5 278L653 328Z" fill="#191919" stroke="#191919"></path><path d="M710 213L786.5 117L691 102Z" fill="#1d1d1d" stroke="#1d1d1d"></path><path d="M190 384L306.5 477L332.5 432Z" fill="#1d1d1d" stroke="#1d1d1d"></path><path d="M332.5 432L306.5 477L436 460Z" fill="#171717" stroke="#171717"></path><path d="M691 102L659 0L546.5 61Z" fill="#212121" stroke="#212121"></path><path d="M810.5 0L659 0L691 102Z" fill="#232323" stroke="#232323"></path><path d="M436 460L590.5 525L571.5 435Z" fill="#212121" stroke="#212121"></path><path d="M571.5 435L661 498L674 401Z" fill="#171717" stroke="#171717"></path><path d="M441 600L590.5 525L436 460Z" fill="#212121" stroke="#212121"></path><path d="M132.5 321L223 305L91.5 232Z" fill="#2c2c2c" stroke="#2c2c2c"></path><path d="M223 305L190 384L332.5 432Z" fill="#1b1b1b" stroke="#1b1b1b"></path><path d="M590.5 525L661 498L571.5 435Z" fill="#171717" stroke="#171717"></path><path d="M674 401L770.5 435L754.5 278Z" fill="#1b1b1b" stroke="#1b1b1b"></path><path d="M806.5 185L786.5 117L710 213Z" fill="#171717" stroke="#171717"></path><path d="M754.5 278L806.5 185L710 213Z" fill="#1d1d1d" stroke="#1d1d1d"></path><path d="M900 214L806.5 185L900 275Z" fill="#282828" stroke="#282828"></path><path d="M91.5 232L223 305L244 229Z" fill="#1b1b1b" stroke="#1b1b1b"></path><path d="M202 0L144.5 96L260 92Z" fill="#1b1b1b" stroke="#1b1b1b"></path><path d="M260 92L144.5 96L244 229Z" fill="#1d1d1d" stroke="#1d1d1d"></path><path d="M362.5 0L202 0L260 92Z" fill="#191919" stroke="#191919"></path><path d="M190 384L256 526L306.5 477Z" fill="#252525" stroke="#252525"></path><path d="M306.5 477L441 600L436 460Z" fill="#212121" stroke="#212121"></path><path d="M120.5 517L256 526L190 384Z" fill="#252525" stroke="#252525"></path><path d="M772.5 461L770.5 435L674 401Z" fill="#212121" stroke="#212121"></path><path d="M315.5 600L441 600L306.5 477Z" fill="#1f1f1f" stroke="#1f1f1f"></path><path d="M590.5 525L698 600L661 498Z" fill="#212121" stroke="#212121"></path><path d="M144.5 96L91.5 232L244 229Z" fill="#1b1b1b" stroke="#1b1b1b"></path><path d="M661 498L772.5 461L674 401Z" fill="#212121" stroke="#212121"></path><path d="M900 275L806.5 185L754.5 278Z" fill="#1d1d1d" stroke="#1d1d1d"></path><path d="M761.5 600L772.5 461L661 498Z" fill="#212121" stroke="#212121"></path><path d="M0 368L130.5 408L132.5 321Z" fill="#191919" stroke="#191919"></path><path d="M132.5 321L130.5 408L190 384Z" fill="#252525" stroke="#252525"></path><path d="M441 600L586.5 600L590.5 525Z" fill="#282828" stroke="#282828"></path><path d="M256 526L315.5 600L306.5 477Z" fill="#212121" stroke="#212121"></path><path d="M186 600L315.5 600L256 526Z" fill="#2a2a2a" stroke="#2a2a2a"></path><path d="M900 75L810.5 0L786.5 117Z" fill="#1d1d1d" stroke="#1d1d1d"></path><path d="M786.5 117L810.5 0L691 102Z" fill="#282828" stroke="#282828"></path><path d="M900 275L754.5 278L900 372Z" fill="#2c2c2c" stroke="#2c2c2c"></path><path d="M806.5 185L900 75L786.5 117Z" fill="#1b1b1b" stroke="#1b1b1b"></path><path d="M586.5 600L698 600L590.5 525Z" fill="#1d1d1d" stroke="#1d1d1d"></path><path d="M900 372L770.5 435L900 484Z" fill="#1b1b1b" stroke="#1b1b1b"></path><path d="M900 372L754.5 278L770.5 435Z" fill="#171717" stroke="#171717"></path><path d="M144.5 96L0 203L91.5 232Z" fill="#282828" stroke="#282828"></path><path d="M202 0L102.5 0L144.5 96Z" fill="#232323" stroke="#232323"></path><path d="M0 519L120.5 517L130.5 408Z" fill="#191919" stroke="#191919"></path><path d="M130.5 408L120.5 517L190 384Z" fill="#232323" stroke="#232323"></path><path d="M900 484L770.5 435L772.5 461Z" fill="#2c2c2c" stroke="#2c2c2c"></path><path d="M900 214L900 75L806.5 185Z" fill="#1d1d1d" stroke="#1d1d1d"></path><path d="M120.5 517L186 600L256 526Z" fill="#252525" stroke="#252525"></path><path d="M698 600L761.5 600L661 498Z" fill="#191919" stroke="#191919"></path><path d="M0 67L0 203L144.5 96Z" fill="#1b1b1b" stroke="#1b1b1b"></path><path d="M91.5 232L0 281L132.5 321Z" fill="#1d1d1d" stroke="#1d1d1d"></path><path d="M0 203L0 281L91.5 232Z" fill="#212121" stroke="#212121"></path><path d="M0 281L0 368L132.5 321Z" fill="#252525" stroke="#252525"></path><path d="M120.5 517L128.5 600L186 600Z" fill="#2a2a2a" stroke="#2a2a2a"></path><path d="M900 75L900 0L810.5 0Z" fill="#212121" stroke="#212121"></path><path d="M102.5 0L0 67L144.5 96Z" fill="#2a2a2a" stroke="#2a2a2a"></path><path d="M761.5 600L900 484L772.5 461Z" fill="#2c2c2c" stroke="#2c2c2c"></path><path d="M0 600L128.5 600L120.5 517Z" fill="#252525" stroke="#252525"></path><path d="M102.5 0L0 0L0 67Z" fill="#252525" stroke="#252525"></path><path d="M0 368L0 519L130.5 408Z" fill="#282828" stroke="#282828"></path><path d="M761.5 600L900 600L900 484Z" fill="#1b1b1b" stroke="#1b1b1b"></path><path d="M0 519L0 600L120.5 517Z" fill="#252525" stroke="#252525"></path></g></svg>