<svg id="visual" viewBox="0 0 900 600" width="900" height="600" xmlns="http://www.w3.org/2000/svg" xmlns:xlink="http://www.w3.org/1999/xlink" version="1.1"><g stroke-width="1" stroke-linejoin="bevel"><path d="M440 319L448 188L269 293Z" fill="#2b3649" stroke="#2b3649"></path><path d="M448 188L291 140L269 293Z" fill="#2b3649" stroke="#2b3649"></path><path d="M269 293L320 426L440 319Z" fill="#2d394c" stroke="#2d394c"></path><path d="M440 319L571 163L448 188Z" fill="#323f54" stroke="#323f54"></path><path d="M448 188L333 0L291 140Z" fill="#2d394c" stroke="#2d394c"></path><path d="M333 0L174 121L291 140Z" fill="#334155" stroke="#334155"></path><path d="M291 140L174 121L269 293Z" fill="#334155" stroke="#334155"></path><path d="M269 293L122 445L320 426Z" fill="#344257" stroke="#344257"></path><path d="M174 121L120 306L269 293Z" fill="#313e52" stroke="#313e52"></path><path d="M449 0L333 0L448 188Z" fill="#313e52" stroke="#313e52"></path><path d="M320 426L487 473L440 319Z" fill="#313e52" stroke="#313e52"></path><path d="M440 319L631 312L571 163Z" fill="#323f54" stroke="#323f54"></path><path d="M571 163L449 0L448 188Z" fill="#2c374b" stroke="#2c374b"></path><path d="M579 477L631 312L440 319Z" fill="#2a3548" stroke="#2a3548"></path><path d="M120 306L122 445L269 293Z" fill="#313e52" stroke="#313e52"></path><path d="M320 426L339 600L487 473Z" fill="#303c51" stroke="#303c51"></path><path d="M487 473L579 477L440 319Z" fill="#2f3b4f" stroke="#2f3b4f"></path><path d="M759 0L568 0L571 163Z" fill="#2f3b4f" stroke="#2f3b4f"></path><path d="M571 163L568 0L449 0Z" fill="#303c51" stroke="#303c51"></path><path d="M333 0L145 0L174 121Z" fill="#303c51" stroke="#303c51"></path><path d="M0 186L0 276L120 306Z" fill="#313e52" stroke="#313e52"></path><path d="M141 600L339 600L320 426Z" fill="#313e52" stroke="#313e52"></path><path d="M487 473L575 600L579 477Z" fill="#2a3548" stroke="#2a3548"></path><path d="M120 306L0 449L122 445Z" fill="#334155" stroke="#334155"></path><path d="M0 186L120 306L174 121Z" fill="#2b3649" stroke="#2b3649"></path><path d="M339 600L466 600L487 473Z" fill="#323f54" stroke="#323f54"></path><path d="M0 0L0 186L174 121Z" fill="#2f3b4f" stroke="#2f3b4f"></path><path d="M579 477L735 417L631 312Z" fill="#323f54" stroke="#323f54"></path><path d="M631 312L782 121L571 163Z" fill="#2f3b4f" stroke="#2f3b4f"></path><path d="M724 600L735 417L579 477Z" fill="#313e52" stroke="#313e52"></path><path d="M466 600L575 600L487 473Z" fill="#2c374b" stroke="#2c374b"></path><path d="M735 417L769 323L631 312Z" fill="#323f54" stroke="#323f54"></path><path d="M0 276L0 449L120 306Z" fill="#334155" stroke="#334155"></path><path d="M122 445L141 600L320 426Z" fill="#334155" stroke="#334155"></path><path d="M0 600L141 600L122 445Z" fill="#323f54" stroke="#323f54"></path><path d="M769 323L782 121L631 312Z" fill="#313e52" stroke="#313e52"></path><path d="M145 0L0 0L174 121Z" fill="#2f3b4f" stroke="#2f3b4f"></path><path d="M782 121L759 0L571 163Z" fill="#2b3649" stroke="#2b3649"></path><path d="M900 437L900 281L769 323Z" fill="#2e3a4e" stroke="#2e3a4e"></path><path d="M575 600L724 600L579 477Z" fill="#344257" stroke="#344257"></path><path d="M0 449L0 600L122 445Z" fill="#2e3a4e" stroke="#2e3a4e"></path><path d="M900 437L769 323L735 417Z" fill="#334155" stroke="#334155"></path><path d="M769 323L900 281L782 121Z" fill="#344257" stroke="#344257"></path><path d="M782 121L900 0L759 0Z" fill="#2e3a4e" stroke="#2e3a4e"></path><path d="M900 281L900 136L782 121Z" fill="#2e3a4e" stroke="#2e3a4e"></path><path d="M724 600L900 437L735 417Z" fill="#2e3a4e" stroke="#2e3a4e"></path><path d="M900 136L900 0L782 121Z" fill="#313e52" stroke="#313e52"></path><path d="M724 600L900 600L900 437Z" fill="#323f54" stroke="#323f54"></path></g></svg>