<?xml version="1.0" encoding="UTF-8" standalone="no"?>
<!DOCTYPE svg PUBLIC "-//W3C//DTD SVG 1.1//EN" "http://www.w3.org/Graphics/SVG/1.1/DTD/svg11.dtd">
<svg height="100%" stroke-miterlimit="10" style="fill-rule:nonzero;clip-rule:evenodd;stroke-linecap:round;stroke-linejoin:round;" version="1.1" viewBox="0 0 64 64" width="100%" xml:space="preserve" xmlns="http://www.w3.org/2000/svg" xmlns:xlink="http://www.w3.org/1999/xlink">
<defs>
<clipPath id="TextBounds">
<rect height="21.9618" width="56.8701" x="3.50301" y="20.9963"/>
</clipPath>
</defs>
<clipPath id="ArtboardFrame">
<rect height="64" width="64" x="0" y="0"/>
</clipPath>
<g clip-path="url(#ArtboardFrame)" id="Untitled">
<path d="M0 9L1.8 9.2C3.7 9.3 7.3 9.7 10.8 8.8C14.3 8 17.7 6 21.2 6.5C24.7 7 28.3 10 32 11.7C35.7 13.3 39.3 13.7 42.8 13.2C46.3 12.7 49.7 11.3 53.2 10.2C56.7 9 60.3 8 62.2 7.5L64 7L64 0L62.2 0C60.3 0 56.7 0 53.2 0C49.7 0 46.3 0 42.8 0C39.3 0 35.7 0 32 0C28.3 0 24.7 0 21.2 0C17.7 0 14.3 0 10.8 0C7.3 0 3.7 0 1.8 0L0 0L0 9Z" fill="#5b8ffb" fill-rule="nonzero" opacity="1" stroke="none"/>
<path d="M0 16L1.8 16C3.7 16 7.3 16 10.8 14.8C14.3 13.7 17.7 11.3 21.2 11.5C24.7 11.7 28.3 14.3 32 16.8C35.7 19.3 39.3 21.7 42.8 21C46.3 20.3 49.7 16.7 53.2 14C56.7 11.3 60.3 9.7 62.2 8.8L64 8L64 5L62.2 5.5C60.3 6 56.7 7 53.2 8.2C49.7 9.3 46.3 10.7 42.8 11.2C39.3 11.7 35.7 11.3 32 9.7C28.3 8 24.7 5 21.2 4.5C17.7 4 14.3 6 10.8 6.8C7.3 7.7 3.7 7.3 1.8 7.2L0 7L0 16Z" fill="#417df8" fill-rule="nonzero" opacity="1" stroke="none"/>
<path d="M0 19L1.8 20.3C3.7 21.7 7.3 24.3 10.8 24.5C14.3 24.7 17.7 22.3 21.2 22.7C24.7 23 28.3 26 32 27.5C35.7 29 39.3 29 42.8 28.3C46.3 27.7 49.7 26.3 53.2 24.8C56.7 23.3 60.3 21.7 62.2 20.8L64 20L64 6L62.2 6.8C60.3 7.7 56.7 9.3 53.2 12C49.7 14.7 46.3 18.3 42.8 19C39.3 19.7 35.7 17.3 32 14.8C28.3 12.3 24.7 9.7 21.2 9.5C17.7 9.3 14.3 11.7 10.8 12.8C7.3 14 3.7 14 1.8 14L0 14L0 19Z" fill="#206af4" fill-rule="nonzero" opacity="1" stroke="none"/>
<path d="M0 37L1.8 40.3C3.7 43.7 7.3 50.3 10.8 53.5C14.3 56.7 17.7 56.3 21.2 53.8C24.7 51.3 28.3 46.7 32 43.3C35.7 40 39.3 38 42.8 39.3C46.3 40.7 49.7 45.3 53.2 44.3C56.7 43.3 60.3 36.7 62.2 33.3L64 30L64 18L62.2 18.8C60.3 19.7 56.7 21.3 53.2 22.8C49.7 24.3 46.3 25.7 42.8 26.3C39.3 27 35.7 27 32 25.5C28.3 24 24.7 21 21.2 20.7C17.7 20.3 14.3 22.7 10.8 22.5C7.3 22.3 3.7 19.7 1.8 18.3L0 17L0 37Z" fill="#005be4" fill-rule="nonzero" opacity="1" stroke="none"/>
<path d="M0 61L1.8 61.5C3.7 62 7.3 63 10.8 63C14.3 63 17.7 62 21.2 60C24.7 58 28.3 55 32 55C35.7 55 39.3 58 42.8 58.8C46.3 59.7 49.7 58.3 53.2 58.5C56.7 58.7 60.3 60.3 62.2 61.2L64 62L64 28L62.2 31.3C60.3 34.7 56.7 41.3 53.2 42.3C49.7 43.3 46.3 38.7 42.8 37.3C39.3 36 35.7 38 32 41.3C28.3 44.7 24.7 49.3 21.2 51.8C17.7 54.3 14.3 54.7 10.8 51.5C7.3 48.3 3.7 41.7 1.8 38.3L0 35L0 61Z" fill="#0052ca" fill-rule="nonzero" opacity="1" stroke="none"/>
<path d="M0 65L1.8 65C3.7 65 7.3 65 10.8 65C14.3 65 17.7 65 21.2 65C24.7 65 28.3 65 32 65C35.7 65 39.3 65 42.8 65C46.3 65 49.7 65 53.2 65C56.7 65 60.3 65 62.2 65L64 65L64 60L62.2 59.2C60.3 58.3 56.7 56.7 53.2 56.5C49.7 56.3 46.3 57.7 42.8 56.8C39.3 56 35.7 53 32 53C28.3 53 24.7 56 21.2 58C17.7 60 14.3 61 10.8 61C7.3 61 3.7 60 1.8 59.5L0 59L0 65Z" fill="#0048b1" fill-rule="nonzero" opacity="1" stroke="none"/>
<g fill="#ffffff" opacity="1" stroke="#00b5ff" stroke-linecap="round" stroke-linejoin="round" stroke-width="0.1">
<path clip-path="url(#TextBounds)" d="M15.9014 38.9963L14.4952 35.2697L8.44832 35.2697L6.90144 38.9963L5.28426 38.9963L10.8389 25.3557L12.6671 25.3557L17.7999 38.9963L15.9014 38.9963ZM9.01082 33.8635L13.9327 33.8635L11.5421 27.5354L9.01082 33.8635Z"/>
<path clip-path="url(#TextBounds)" d="M21.0343 34.1447L21.0343 38.9963L19.3468 38.9963L19.3468 29.1525L21.0343 29.1525L21.0343 30.9104C21.3624 30.3479 21.8077 29.8557 22.3702 29.4338C22.8389 29.1057 23.378 28.9416 23.9874 28.9416C24.128 28.9416 24.4327 28.9885 24.9014 29.0822L24.9014 30.7697C24.5733 30.5822 24.1514 30.4885 23.6358 30.4885C22.9327 30.4885 22.3233 30.7697 21.8077 31.3322C21.2921 31.9885 21.0343 32.926 21.0343 34.1447Z"/>
<path clip-path="url(#TextBounds)" d="M34.4639 38.9963L32.4249 38.9963L28.0655 33.8635L28.0655 38.9963L26.3077 38.9963L26.3077 24.7932L28.0655 24.7932L28.0655 33.8635L32.4249 29.1525L34.253 29.1525L30.0343 33.7229L34.4639 38.9963Z"/>
<path clip-path="url(#TextBounds)" d="M40.0186 38.9963L36.0108 38.9963L36.0108 25.3557L39.8077 25.3557C41.9639 25.3557 43.4874 25.7307 44.378 26.4807C45.8311 27.6525 46.5577 29.5275 46.5577 32.1057C46.5577 34.6838 45.8077 36.5822 44.3077 37.801C43.3702 38.5979 41.9405 38.9963 40.0186 38.9963ZM39.878 26.7619L37.8389 26.7619L37.8389 37.5197L39.878 37.5197C41.5655 37.5197 42.7843 37.0979 43.5343 36.2541C44.2843 35.5041 44.6593 34.1682 44.6593 32.2463C44.6593 30.09 44.2139 28.5666 43.3233 27.676C42.7139 27.0666 41.5655 26.7619 39.878 26.7619Z"/>
<path clip-path="url(#TextBounds)" d="M54.7843 31.8244C55.8624 32.0119 56.6358 32.4338 57.1046 33.09C57.5733 33.6994 57.8077 34.426 57.8077 35.2697C57.8077 35.9729 57.5968 36.6525 57.1749 37.3088C56.753 37.9182 56.2139 38.34 55.5577 38.5744C54.9483 38.8557 53.9874 38.9963 52.6749 38.9963L48.5968 38.9963L48.5968 25.3557L52.253 25.3557C53.7061 25.3557 54.7374 25.426 55.3468 25.5666C56.003 25.801 56.4718 26.1291 56.753 26.551C57.0811 27.0197 57.2452 27.6057 57.2452 28.3088C57.2452 29.8088 56.4249 30.9807 54.7843 31.8244ZM52.6749 26.7619L50.4249 26.7619L50.4249 31.2619L52.1124 31.2619C53.1436 31.2619 53.9874 31.0041 54.6436 30.4885C55.2061 29.9729 55.4874 29.34 55.4874 28.59C55.4874 28.0275 55.2764 27.5822 54.8546 27.2541C54.5264 26.926 53.7999 26.7619 52.6749 26.7619ZM51.6905 32.6682L50.4249 32.6682L50.4249 37.6604L52.8858 37.6604C54.0108 37.6604 54.8077 37.4494 55.2764 37.0275C55.7452 36.6994 55.9796 36.1604 55.9796 35.4104C55.9796 34.5197 55.628 33.84 54.9249 33.3713C54.1749 32.9025 53.0968 32.6682 51.6905 32.6682Z"/>
</g>
</g>
</svg>
